<?xml version="1.0" encoding="UTF-8"?>
<svg width="23px" height="19px" viewBox="0 0 23 19" version="1.1" xmlns="http://www.w3.org/2000/svg" xmlns:xlink="http://www.w3.org/1999/xlink">
    <title>Vector</title>
    <g id="Page-1" stroke="none" stroke-width="1" fill="none" fill-rule="evenodd">
        <g id="Vector" fill="#D8D8D8" fill-rule="nonzero">
            <path d="M8.8817842e-16,6.300004 C8.8817842e-16,7.816664 0.233333,10.150044 2.333329,12.250044 C4.199999,14.116644 10.383319,18.316644 10.616619,18.550044 C10.850019,18.666644 11.083319,18.783344 11.316619,18.783344 C11.550019,18.783344 11.783319,18.666644 12.016619,18.550044 C12.250019,18.316644 18.433319,14.233344 20.300019,12.250044 C22.400019,10.150044 22.633319,7.816664 22.633319,6.300004 C22.633319,2.800004 19.833319,3.05311332e-16 16.333319,3.05311332e-16 C14.466619,3.05311332e-16 12.600019,1.050004 11.433319,2.683334 C10.266619,1.050004 8.399999,3.05311332e-16 6.299999,3.05311332e-16 C2.916669,3.05311332e-16 8.8817842e-16,2.800004 8.8817842e-16,6.300004 Z" id="Path"></path>
        </g>
    </g>
</svg>