<svg width="113" height="127" viewBox="0 0 113 127" fill="none" xmlns="http://www.w3.org/2000/svg">
<path d="M112 85V8.00002C111.995 6.94858 111.754 5.91174 111.293 4.9665C110.833 4.02126 110.165 3.1919 109.34 2.54002C108.527 1.88217 107.577 1.41493 106.559 1.17266C105.541 0.930382 104.483 0.919229 103.46 1.14002L40.4601 15.14C38.9048 15.4907 37.5159 16.3619 36.523 17.6093C35.5302 18.8567 34.9929 20.4057 35.0001 22V80.38C30.2214 78.124 24.84 77.4784 19.6633 78.5399C14.4866 79.6014 9.79362 82.3128 6.28844 86.2674C2.78326 90.222 0.65486 95.2066 0.222539 100.473C-0.209781 105.74 1.07729 111.005 3.89067 115.478C6.70404 119.951 10.892 123.392 15.8264 125.283C20.7607 127.175 26.1753 127.415 31.2579 125.969C36.3405 124.522 40.817 121.467 44.016 117.261C47.2149 113.054 48.9637 107.924 49.0001 102.64C49.0725 101.428 49.0725 100.212 49.0001 99V27.6L98.0001 16.75V66.38C93.2187 64.1227 87.834 63.4775 82.6547 64.5414C77.4754 65.6052 72.7811 68.3207 69.2767 72.2801C65.7723 76.2394 63.647 81.2288 63.2201 86.4989C62.7931 91.7691 64.0875 97.0356 66.9088 101.507C69.7301 105.979 73.9261 109.415 78.8666 111.299C83.8071 113.182 89.2254 113.413 94.3078 111.954C99.3902 110.496 103.862 107.428 107.052 103.212C110.243 98.9952 111.979 93.8574 112 88.57C112.067 87.3809 112.067 86.1891 112 85ZM24.7801 113C22.8073 112.999 20.8752 112.439 19.208 111.385C17.5408 110.33 16.2069 108.824 15.361 107.042C14.5152 105.26 14.1921 103.274 14.4294 101.316C14.6666 99.3574 15.4544 97.5064 16.7012 95.9777C17.9481 94.4489 19.603 93.3052 21.4738 92.6791C23.3446 92.0531 25.3545 91.9705 27.2704 92.4408C29.1863 92.9111 30.9294 93.9152 32.2976 95.3364C33.6658 96.7576 34.6029 98.5377 35.0001 100.47C35.0689 101.168 35.0689 101.872 35.0001 102.57C35.0006 105.3 33.9306 107.922 32.0198 109.872C30.109 111.822 27.5097 112.945 24.7801 113ZM87.7801 99C85.7869 99.0155 83.8304 98.4634 82.1394 97.4082C80.4484 96.3529 79.0927 94.8382 78.2308 93.0409C77.3688 91.2437 77.0362 89.2382 77.2719 87.2589C77.5075 85.2796 78.3017 83.4083 79.5616 81.8637C80.8214 80.3191 82.4949 79.165 84.3864 78.5363C86.2779 77.9076 88.3093 77.8303 90.2431 78.3134C92.1769 78.7965 93.9333 79.8201 95.3069 81.2645C96.6805 82.7088 97.6146 84.5144 98.0001 86.47C98.0689 87.1683 98.0689 87.8717 98.0001 88.57C97.9817 91.3306 96.877 93.9728 94.9249 95.9249C92.9729 97.8769 90.3306 98.9817 87.5701 99H87.7801Z" fill="white"/>
</svg>
